<svg height="16" viewBox="0 0 76 16" fill="none" xmlns="http://www.w3.org/2000/svg"><path d="M0.341797 1.62532H2.46852V12.8295H8.34727V14.7995H0.341797V1.62532ZM10.4394 1.62532C10.612 1.62303 10.7833 1.65477 10.9436 1.7187C11.104 1.78264 11.25 1.87753 11.3737 1.99794C11.4974 2.11836 11.596 2.26196 11.6641 2.42053C11.7323 2.5791 11.7685 2.74954 11.7708 2.9221C11.7708 3.2752 11.6305 3.61384 11.3808 3.86352C11.1312 4.1132 10.7925 4.25347 10.4394 4.25347C10.0864 4.25347 9.74767 4.1132 9.498 3.86352C9.24831 3.61384 9.10805 3.2752 9.10805 2.9221C9.10877 2.74908 9.14396 2.57794 9.21155 2.41867C9.27915 2.2594 9.3778 2.11519 9.50174 1.99447C9.62569 1.87374 9.77247 1.77893 9.93341 1.71554C10.0944 1.65216 10.2664 1.62149 10.4394 1.62532ZM9.40198 5.30818H11.4422V14.7995H9.40198V5.30818ZM12.6352 5.30818H14.6755V6.62226C15.2796 5.61941 16.317 5.04883 17.683 5.04883C19.8961 5.04883 21.2794 6.77787 21.2794 9.52708V14.7995H19.2391V9.69998C19.2391 7.91904 18.461 6.9162 17.0559 6.9162C15.5182 6.9162 14.6709 7.9709 14.6709 9.87287V14.7995H12.6307L12.6352 5.30818ZM22.3514 1.62532H24.3917V9.95927L28.1955 5.30818H30.7545L26.6912 10.0631L30.7545 14.7995H28.1955L24.3917 10.1668V14.7995H22.3514V1.62532ZM31.5499 2.89328H33.6247V5.31395H36.0454V7.00841H33.6247V11.9004C33.6247 12.5241 34.0051 12.9044 34.593 12.9044H35.9601V14.8052H34.3164C32.5355 14.8052 31.5499 13.7505 31.5499 11.8844V2.89328ZM36.9445 5.31395H38.9848V6.48969C39.4861 5.5906 40.3334 5.05459 41.3709 5.05459C41.6103 5.04368 41.8499 5.0729 42.0797 5.14104V7.04299C41.8301 6.98813 41.5744 6.96489 41.319 6.97382C39.8147 6.97382 38.9848 8.24179 38.9848 10.4146V14.8052H36.9445V5.31395ZM46.8508 5.05459C49.0985 5.05459 51.5365 6.42053 51.5365 10.2763V10.553H44.2226C44.3794 12.2462 45.3638 13.18 47.0063 13.18C48.1821 13.18 49.185 12.5402 49.4097 11.6595H51.4846C51.2771 13.5603 49.306 15.0646 47.0063 15.0646C44.067 15.0646 42.2181 13.1453 42.2181 10.0515C42.2181 7.29658 43.999 5.04883 46.8508 5.04883V5.05459ZM49.3579 8.85848C49.0639 7.68274 48.1475 6.93925 46.8508 6.93925C45.6059 6.93925 44.7252 7.70003 44.3794 8.85848H49.3579ZM57.0694 5.05459C59.3172 5.05459 61.7551 6.42053 61.7551 10.2763V10.553H54.4412C54.5968 12.2462 55.5824 13.18 57.2251 13.18C58.4008 13.18 59.4036 12.5402 59.6283 11.6595H61.7033C61.4957 13.5603 59.5246 15.0646 57.2251 15.0646C54.2857 15.0646 52.4356 13.1453 52.4356 10.0515C52.4356 7.29658 54.2165 5.04883 57.0694 5.04883V5.05459ZM59.5765 8.85848C59.2826 7.68274 58.3662 6.93925 57.0694 6.93925C55.8245 6.93925 54.9427 7.70003 54.5968 8.85848H59.5765Z" fill="currentColor"></path><path d="M62.2578 5.01999H65.9061L63.3125 2.54746L64.7476 1.07201L67.2202 3.6137V0H69.3642V3.6137L71.8366 1.07777L73.2706 2.54746L70.6782 5.01423H74.3254V7.0545H70.6574L73.2672 9.59039L71.8366 11.0313L68.2922 7.46946L64.7476 11.0313L63.3125 9.59623L65.9233 7.06026H62.2578V5.01999ZM67.2143 9.9823H69.3584V14.8237H67.2143V9.9823Z" fill="currentColor"></path></svg>