<svg height="16" viewBox="0 0 48 16" fill="none" xmlns="http://www.w3.org/2000/svg"><path d="M34.5556 11.8726C34.3598 9.67833 32.503 9.12976 30.6853 8.52634C29.0479 7.97777 27.5045 7.84454 27.3399 6.66904C27.1598 5.423 28.3898 4.58447 29.6747 4.8039C31.0692 5.04684 31.3278 6.12047 31.0066 6.81794C31.649 7.60944 33.2473 7.53108 33.733 6.97467C34.1404 6.52014 34.2736 5.76782 33.4275 5.05468C32.3933 4.17697 30.2623 3.76162 28.2253 4.14562C26.2196 4.52178 24.637 5.86186 24.8094 7.8132C25.0052 9.91343 26.4938 10.5247 28.8677 11.1516C31.1554 11.7629 31.9075 12.5779 31.7587 13.6437C31.6255 14.5919 30.8185 15.3756 29.0871 15.1719C27.3556 14.9681 26.4546 13.6515 26.8072 12.1547C24.8407 11.7002 23.9867 13.6437 25.632 14.9211C27.2068 16.1515 30.3093 16.2612 32.0564 15.595C33.6077 14.9916 34.7358 13.9023 34.5556 11.8726ZM21.1898 3.4168C22.2553 3.4168 23.1249 2.64881 23.1249 1.7084C23.1249 0.760161 22.2553 0 21.1898 0C20.1243 0 19.2546 0.767997 19.2546 1.7084C19.2546 2.64881 20.1164 3.4168 21.1898 3.4168ZM22.7097 4.34937C21.7382 4.78039 20.6335 4.78039 19.662 4.34937V15.6577H22.7175L22.7097 4.34937ZM42.7272 4.01239C41.6617 4.00456 40.6197 4.34154 39.7578 4.97631V0.329141H36.624V15.6499H39.75V8.54985C39.75 6.7474 40.0242 5.8932 40.933 5.21141C41.7557 4.59231 42.923 4.70202 43.5576 5.14872C44.3254 5.68161 44.2863 6.96683 44.2863 7.99344V15.6577H47.3418V7.94642C47.3496 5.19574 45.485 4.01239 42.7272 4.01239ZM14.3893 15.6577H11.3338L8.92856 8.65956L7.22844 15.6499H4.17293L0.341797 4.35721H3.48349L6.72702 14.1374C7.88655 10.8617 8.61517 7.80536 7.48698 4.35721H10.5425L14.3893 15.6577ZM15.6585 3.99672C14.9926 5.17223 14.1308 6.22234 13.1044 7.10006C14.2091 8.30691 15.0787 9.70968 15.6585 11.2378C16.2383 9.70968 17.1001 8.29907 18.2126 7.10006C17.1863 6.22234 16.3245 5.17223 15.6585 3.99672Z" fill="currentColor"></path></svg>