<svg height="16" viewBox="0 0 74 16" fill="none" xmlns="http://www.w3.org/2000/svg"><g><path d="M30.9818 12.561L28.293 1.83984H30.6926L32.4954 9.26102H32.5263L35.1245 1.83984H37.1877L39.7859 9.26102H39.8168L41.635 1.83984H44.0192L41.3294 12.561H38.8845L36.1638 5.39402H36.134L33.3979 12.561H30.9838H30.9818Z" fill="currentColor"></path><path d="M44.75 1.83983H47.0118V5.39401H47.0426C47.2422 5.02665 47.6374 4.73441 48.1004 4.53582C48.5295 4.35162 49.1521 4.23535 49.7016 4.23226C50.3066 4.22918 51.1432 4.38455 51.7338 4.69017C52.3348 5.01636 52.7886 5.45472 53.0942 6.00421C53.4204 6.57428 53.583 7.21637 53.583 7.92947V12.559H51.3212V8.23406C51.3212 7.60328 51.1329 7.11348 50.7553 6.7667C50.3787 6.41993 49.8631 6.24705 49.2118 6.24705C48.5604 6.24705 48.0397 6.43022 47.623 6.79757C47.2155 7.1639 47.0118 7.64341 47.0118 8.23406V12.559H44.75V1.83777V1.83983Z" fill="currentColor"></path><path d="M54.3711 8.51195C54.3711 7.86985 54.4935 7.28434 54.7374 6.75544C54.9823 6.2255 55.3157 5.7748 55.7386 5.40333C56.1616 5.03083 56.6483 4.74373 57.1978 4.53999C57.7483 4.33625 58.3286 4.23438 58.9399 4.23438C59.5511 4.23438 60.1654 4.33933 60.72 4.54719C61.2757 4.75608 61.7593 5.04626 62.172 5.41773C62.5846 5.79023 62.9108 6.23785 63.1495 6.76264C63.3883 7.28743 63.5087 7.87088 63.5087 8.51195C63.5087 9.15302 63.3862 9.7519 63.1423 10.2767C62.8974 10.8015 62.5671 11.2501 62.1493 11.6216C61.7316 11.9941 61.2459 12.2812 60.6902 12.4849C60.1345 12.6887 59.5511 12.7905 58.9409 12.7905C58.3307 12.7905 57.7308 12.6856 57.1762 12.4777C56.6205 12.2688 56.1369 11.9756 55.7242 11.599C55.3116 11.2223 54.9833 10.7716 54.7384 10.2468C54.4935 9.72205 54.3721 9.14479 54.3721 8.51298L54.3711 8.51195ZM61.2479 8.51195C61.2479 7.81943 61.037 7.26376 60.6141 6.84599C60.1911 6.42821 59.6334 6.21933 58.9409 6.21933C58.6044 6.21933 58.2937 6.27592 58.0086 6.38705C57.7226 6.49922 57.4787 6.65459 57.2749 6.85319C57.0712 7.05179 56.9138 7.29361 56.8016 7.57864C56.6894 7.86367 56.6339 8.17443 56.6339 8.51092C56.6339 8.8474 56.6894 9.1561 56.8016 9.43599C56.9138 9.71588 57.0743 9.9577 57.2821 10.1614C57.491 10.3652 57.7349 10.5226 58.0158 10.6348C58.2957 10.7469 58.6044 10.8025 58.9409 10.8025C59.2774 10.8025 59.5871 10.7469 59.8732 10.6348C60.1582 10.5226 60.4031 10.3672 60.6069 10.1686C60.8106 9.97005 60.968 9.72823 61.0802 9.44319C61.1924 9.15816 61.2479 8.8474 61.2479 8.51092V8.51195Z" fill="currentColor"></path><path d="M64.3262 4.23022H66.4963V5.39506H66.5272C66.6682 5.08842 67.266 4.57803 67.7342 4.44014C68.2024 4.30328 68.6758 4.23331 69.1553 4.23331C69.7665 4.23331 70.3263 4.34547 70.8367 4.5698C71.345 4.79412 71.7865 5.09974 72.1579 5.48664C72.5294 5.87355 72.8196 6.32734 73.0285 6.84699C73.2373 7.36663 73.3413 7.9223 73.3413 8.51294C73.3413 9.10359 73.2373 9.6891 73.0285 10.2098C72.8196 10.7294 72.5284 11.1801 72.1579 11.5619C71.7865 11.9436 71.3429 12.2441 70.8284 12.4633C70.3139 12.6825 69.7562 12.7915 69.1553 12.7915C68.9618 12.7915 68.7447 12.7741 68.506 12.738C68.2662 12.702 68.0316 12.6485 67.8032 12.5775C67.5737 12.5065 67.3545 12.417 67.1467 12.31C66.9378 12.203 66.7618 12.0784 66.6198 11.9354H66.589V16H64.3282V4.23022H64.3272H64.3262ZM71.0806 8.51191C71.0806 7.81939 70.8717 7.26682 70.4539 6.85419C70.0361 6.44156 69.4805 6.23473 68.7879 6.23473C68.543 6.23473 68.2919 6.27589 68.0316 6.35718C67.7723 6.43847 67.5356 6.55577 67.3216 6.7091C67.1076 6.86139 66.9316 7.04558 66.7948 7.25961C66.6579 7.47365 66.5879 7.71752 66.5879 7.99329V9.01716C66.5879 9.37422 66.6918 9.68498 66.9018 9.94943C67.1096 10.2139 67.3731 10.4187 67.6879 10.5607C68.0141 10.7232 68.3856 10.8056 68.8034 10.8056C69.4856 10.8056 70.0361 10.5946 70.4539 10.1717C70.8706 9.74878 71.0806 9.1962 71.0806 8.51397V8.51191Z" fill="currentColor"></path><path d="M3.89893 0.00102844C2.28751 0.00102844 1.17619 0.707954 0.335493 1.50749C0.335493 1.50749 -0.0040789 1.82957 3.71182e-05 1.83883L3.53158 5.37037L7.06209 1.83883C6.39324 0.917871 5.13271 0 3.89893 0V0.00102844Z" fill="currentColor"></path><path d="M12.6179 0.00102844C11.0064 0.00102844 9.8951 0.707954 9.05441 1.50749C9.05441 1.50749 8.74468 1.82031 8.73027 1.83883L4.36523 6.20387L7.8906 9.72924L15.78 1.83883C15.1111 0.917872 13.8516 0 12.6168 0L12.6179 0.00102844Z" fill="currentColor"></path><path d="M21.3605 0.00102844C19.749 0.00102844 18.6377 0.707954 17.797 1.50749C17.797 1.50749 17.4739 1.8234 17.4616 1.83883L8.73047 10.571L9.65451 11.495C11.0838 12.9243 13.4248 12.9243 14.8541 11.495L24.5113 1.83883H24.5226C23.8537 0.917871 22.5942 0 21.3594 0L21.3605 0.00102844Z" fill="currentColor"></path></g></svg>